<svg xmlns="http://www.w3.org/2000/svg" width="225" height="48" viewBox="0 0 225 48"><title>BelgianLandLogo</title><path d="M97.3 30.1l-.64 1.6c1.31.93 3.49 1.41 5.44 1.41 1.96 0 4.26-.54 5.83-2.05 1.44-1.38 2.31-3.55 2.31-7.97V12.84c0-1.98.06-3.33.16-4.58h-1.83l-.09 2.79h-.07c-.7-1.41-2.34-3.2-5.57-3.2-3.78 0-7.65 3.17-7.65 9.22 0 4.8 3.04 8.52 7.27 8.52 2.91 0 4.86-1.48 5.76-3.21h.06v2.34c0 4.96-2.49 6.76-5.95 6.76-2.18 0-3.88-.64-5.03-1.38zm-35-17.61c2.47-.83 4.23-2.95 4.23-5.38 0-3.27-2.05-6.02-7.95-6.02-1.85 0-3.61.22-4.93.54v23.92c.93.07 2.37.23 4.26.23 3.49 0 6.09-.67 7.69-2.34 1.57-1.57 1.82-3.49 1.82-4.67 0-3.88-2.97-5.7-5.12-6.18zm-38.92 6.32c0-1.75-1.12-5.08-5.37-5.08H0v11.86h18.01c1.86 0 5.37-1.07 5.37-5.08zm0-13.7c0-1.76-1.12-5.08-5.37-5.08H0v11.86h18.01c1.86 0 5.37-1.07 5.37-5.08zm46.99 12.12c0 5.09 3.04 8.71 8.04 8.71 2.85 0 4.61-.67 5.38-1.09l-.48-1.47c-1 .48-2.28.96-4.65.96-3.39 0-6.34-2.08-6.34-7.46h12.36c.03-.39.07-.68.07-1.16-.04-2.69-1.19-7.87-6.7-7.87-4.48 0-7.68 3.71-7.68 9.38zm81.02 8.36h1.98V15.08c0-6.24-4.16-7.23-5.96-7.23-2.78 0-4.86 1.56-5.79 3.42h-.07l-.16-3.01h-1.79c.07 1.35.13 2.56.13 4.23v13.1h1.98V14.86c0-2.76 2.21-5.35 5.13-5.35 3.43 0 4.55 2.76 4.55 5.83zm-24.31.38c2.63 0 4.52-1.41 5.35-2.79h.09l.23 2.41h1.82c-.19-1.28-.22-2.76-.22-4.14V14.7c0-3.27-1.09-6.85-5.99-6.85-1.7 0-3.59.48-5.09 1.47l.58 1.41c1.21-.87 2.78-1.28 4.26-1.28 4.25 0 4.25 3.68 4.25 5.38-6.78-.07-10.34 2.27-10.34 6.34 0 2.37 1.67 4.8 5.06 4.8zM1.71 10.17V1.75h16.3c3.52 0 3.65 3.02 3.65 3.36v1.7c0 3.24-3.27 3.36-3.65 3.36zm19.95 10.34c0 3.24-3.27 3.36-3.65 3.36H1.71v-8.42h16.3c3.52 0 3.65 3.02 3.65 3.36zm75.54-3.63c0-4.49 2.37-7.4 5.83-7.4 3.17 0 5.25 2.66 5.25 5.41v3.56c0 2.91-2.24 5.54-5.28 5.54-3.84 0-5.8-3.21-5.8-7.11zm-41.59 7.07v-10.5h2.88c3.52 0 6.88 1.47 6.88 5.35 0 4-3.29 5.34-6.95 5.34-1.18 0-2.14-.03-2.81-.19zm0-20.97c.51-.16 1.41-.26 2.94-.26 3.49 0 5.96 1.19 5.96 4.49 0 2.65-2.18 4.67-5.6 4.67h-3.3zM4.09 38.02C1.4 38.02 0 39.62 0 42.24c0 2.6 1.43 4.22 4.09 4.22h.12l1.37 1.4h2.45L6.1 46.05c1.37-.62 2.08-1.97 2.08-3.81 0-2.62-1.4-4.22-4.09-4.22zm88.09 6.92l-2.56-6.78H87.7v8.16h1.16v-7.06h.03l2.7 7.06h1.14l2.7-7.06h.03v7.06h1.17v-8.16H94.7zm-69.11-6.78l-3.09 8.16h2.2l.65-1.74h3.06l.61 1.74h2.38l-3.14-8.16zm172.74 4.08c0 2.6 1.43 4.22 4.09 4.22 2.67 0 4.09-1.62 4.09-4.22 0-2.62-1.4-4.22-4.09-4.22s-4.09 1.6-4.09 4.22zm-33.18 2.33h-.02l-1.82-6.41h-2.31l2.73 8.16h2.69l2.78-8.16h-2.23zM55.72 41.44l-1.6-3.28h-2.5l3.01 5.09v3.07h2.17v-3.07l3-5.09h-2.51zm134.03 0l-1.6-3.28h-2.51l3.02 5.09v3.07h2.17v-3.07l2.99-5.09h-2.5zm-112.98.8c0 2.48 1.43 4.22 3.92 4.22 2.5 0 3.93-1.74 3.93-4.22 0-2.42-1.45-4.22-3.93-4.22-2.47 0-3.92 1.8-3.92 4.22zm49.98 0c0 2.48 1.43 4.22 3.92 4.22s3.93-1.74 3.93-4.22c0-2.42-1.45-4.22-3.93-4.22-2.48 0-3.92 1.8-3.92 4.22zm5.65-22.26c0 1.28-1.29 4.39-5 4.39-1.73 0-3.3-1.09-3.3-3.49 0-4.04 4.68-4.48 8.3-4.48zm79.79 23.72h-.02l-2.75-5.54h-2.77v8.16h1.99l-.07-5.57h.03l2.85 5.57h2.7v-8.16h-1.99zM72.42 15.34c.29-2.6 1.86-5.89 5.44-5.89 3.88 0 4.9 3.42 4.87 5.89zM15.66 42.86c0 1.08-.29 1.99-1.4 1.99-1.11 0-1.4-.91-1.4-1.99v-4.7h-2.18v5.06c0 2.24 1.45 3.24 3.58 3.24s3.57-1 3.57-3.24v-5.06h-2.17zm166.73-.58c1.06-.25 1.57-.97 1.57-2.06 0-1.4-1.18-2.06-2.63-2.06h-3.88v8.16h2.17v-3.23h.46c.81 0 1.09.36 1.53 1.76l.47 1.47h2.26l-.79-2.22c-.41-.99-.46-1.61-1.16-1.8zM88.94 25.59h1.99V0h-1.99zm-45.2 14.19h2.01v6.54h2.17v-6.54h2.01v-1.62h-6.19zm175.48 5v-1.85h3.38v-1.54h-3.38v-1.68h3.58v-1.55h-5.75v8.16h5.88v-1.54zm-66.53-1.85h3.38v-1.54h-3.38v-1.68h3.58v-1.55h-5.75v8.16h5.88v-1.54h-3.71zm18.39 0h3.38v-1.54h-3.38v-1.68h3.58v-1.55h-5.75v8.16h5.87v-1.54h-3.7zm-30-.7c.94-.16 1.68-.86 1.68-1.86 0-1.95-1.55-2.21-3.17-2.21h-2v8.16h1.17V42.7h.7c.62 0 1.01 0 1.37.79l1.25 2.83h1.33l-1.54-3.25c-.26-.5-.43-.68-.79-.82zM33.31 38.16h-2.17v8.16h5.54v-1.61h-3.37zm76.89.89c.6 0 .93.11 1.53.34l.16-1.07c-.56-.2-1.2-.3-1.74-.3-1.47 0-2.62.77-2.62 2.22 0 2.54 3.51 2.04 3.51 3.86 0 .96-.94 1.33-1.6 1.33-.6 0-1.3-.23-1.7-.39l-.11 1.08c.53.18 1.09.34 1.67.34 1.63 0 2.98-.69 2.98-2.43 0-2.69-3.51-2.33-3.51-3.89 0-.86.77-1.09 1.43-1.09zm-10.02 7.27h4.57v-1.03h-3.4V42.6h3.09v-1.02h-3.09v-2.39h3.4v-1.03h-4.57zm19.67 0h1.17V42.6h3.03v-1.02h-3.03v-2.39h3.17v-1.03h-4.34zm-3.98-20.73h1.99V8.26h-1.99zm12.11 16.65c0-1.66.89-3.2 2.69-3.19 1.8-.01 2.69 1.53 2.69 3.19 0 1.63-.8 3.19-2.69 3.19-1.88 0-2.69-1.56-2.69-3.19zm-49.97 0c0-1.66.88-3.2 2.68-3.19 1.81-.01 2.69 1.53 2.69 3.19 0 1.63-.8 3.19-2.69 3.19-1.88 0-2.68-1.56-2.68-3.19zm-75.77 0c0-1.41.53-2.61 1.85-2.61s1.85 1.2 1.85 2.61c0 1.35-.53 2.61-1.85 2.61s-1.85-1.26-1.85-2.61zm195.81 0c0-1.41.53-2.61 1.85-2.61s1.85 1.2 1.85 2.61c0 1.35-.53 2.61-1.85 2.61s-1.85-1.26-1.85-2.61zM39.14 46.32h2.18v-8.16h-2.18zm76.25-42.99c0 .87.61 1.6 1.48 1.6.86 0 1.5-.64 1.5-1.6 0-.86-.58-1.57-1.47-1.57-.87 0-1.51.74-1.51 1.57zm23.37 38.34v-2.48h1.12c1.08 0 1.64.47 1.64 1.21 0 .78-.65 1.27-1.77 1.27zM23.33 43.04l1.05-3.19h.02l.97 3.19zm156.29-1.49v-1.84h.58c.83 0 1.59.14 1.59.9 0 .92-.89.94-1.59.94zM72.48 38.16h1.17v8.16h-1.17V42.6h-3.91v3.72h-1.16v-8.16h1.16v3.42h3.91z" fill="#fff"/><path d="M36.74 0H25v20.36c0 4.11 3.39 5.19 5.19 5.19h18.19V13.81H36.74zm9.92 15.53v8.31H30.19c-.14 0-3.48-.04-3.48-3.48V1.71h8.31v13.82zM223.89 0h-1.99v10.76h-.06c-.8-1.51-2.63-2.95-5.42-2.95-4.16 0-7.65 3.56-7.65 9.35 0 5.29 3.14 8.78 7.3 8.78 3.08 0 5.09-1.67 5.96-3.56h.09l.13 3.17h1.8c-.1-1.18-.16-2.78-.16-4.1zm-30.94 11.24h-.06l-.16-3.01h-1.79c.06 1.34.12 2.56.12 4.23v13.09h1.99V14.83c0-2.76 2.21-5.35 5.12-5.35 3.43 0 4.55 2.75 4.55 5.83v10.24h1.99v-10.5c0-6.24-4.17-7.24-5.96-7.24-2.79 0-4.87 1.57-5.8 3.43zm-7.27 3.43c0-3.27-1.09-6.86-5.98-6.86-1.7 0-3.59.48-5.1 1.48l.58 1.41c1.22-.87 2.79-1.29 4.26-1.29 4.26 0 4.26 3.69 4.26 5.38-6.79-.06-10.35 2.28-10.35 6.34 0 2.37 1.67 4.81 5.06 4.81 2.63 0 4.52-1.41 5.35-2.79h.1l.22 2.4h1.83c-.19-1.28-.23-2.75-.23-4.13zm36.22 3.9c0 2.4-1.79 5.74-5.38 5.74-3.87 0-5.73-3.46-5.73-7.27 0-4.33 2.24-7.59 5.83-7.59 2.72 0 5.28 2.11 5.28 5.66zm-38.17 1.38c0 1.28-1.28 4.39-5 4.39-1.72 0-3.29-1.09-3.29-3.49 0-4.04 4.67-4.49 8.29-4.49zm-22.9 3.94h10.51v1.66h-12.49V1.25h1.98z" fill="#7ac143"/></svg>